{"title":"Zanjeer (2013) 501MB Scam Rip Xvid ][VAMPIRE ROCK'S][","uid":8888374,"size":525698421,"categoryP":"video","categoryS":"movies","magnet":"?xt=urn:btih:7b4432679b2dde41f7723742376147517c032478&amp;dn=Zanjeer+%282013%29+501MB+Scam+Rip+Xvid+%5D%5BVAMPIRE+ROCK%27S%5D%5B&amp;tr=udp%3A%2F%2Ftracker.openbittorrent.com%3A80&amp;tr=udp%3A%2F%2Fopen.demonii.com%3A1337&amp;tr=udp%3A%2F%2Ftracker.coppersurfer.tk%3A6969&amp;tr=udp%3A%2F%2Fexodus.desync.com%3A6969","seeders":1,"leechers":0,"uploader":"bhoottt","files":11,"time":1378521971,"description":"[CENTER]\n[B][SIZE=&quot;5&quot;][COLOR=&quot;DarkRed&quot;]Zanjeer (2013) 501MB Scam Rip Xvid ][VAMPIRE ROCK'S][[/COLOR][/SIZE][/B]\n\n[hide]\n[URL=http://www.tinyuploads.com/gallery/view/eReg1L][IMG]http://i.tinyuploads.com/eReg1L.png[/IMG][/URL]\n[URL=http://www.tinyuploads.com/gallery/view/4XhgEp][IMG]http://i.tinyuploads.com/4XhgEp.png[/IMG][/URL]\n[URL=http://www.tinyuploads.com/gallery/view/5I5KuF][IMG]http://i.tinyuploads.com/5I5KuF.png[/IMG][/URL]\n[URL=http://www.tinyuploads.com/gallery/view/z8sgOX][IMG]http://i.tinyuploads.com/z8sgOX.png[/IMG][/URL]\n[URL=http://www.tinyuploads.com/gallery/view/9LUGK2][IMG]http://i.tinyuploads.com/9LUGK2.png[/IMG][/URL]\n[URL=http://www.tinyuploads.com/gallery/view/DL8oan][IMG]http://i.tinyuploads.com/DL8oan.png[/IMG][/URL]\n[URL=http://www.tinyuploads.com/gallery/view/iH6Rdc][IMG]http://i.tinyuploads.com/iH6Rdc.png[/IMG][/URL]\n[URL=http://www.tinyuploads.com/gallery/view/Fuc8Y0][IMG]http://i.tinyuploads.com/Fuc8Y0.png[/IMG][/URL]\n[URL=http://www.tinyuploads.com/gallery/view/C9rJf1][IMG]http://i.tinyuploads.com/C9rJf1.png[/IMG][/URL]\n\n[/hide]\n\n\n[B]INFO[/B]\n\n[CODE]\nGeneral\nFormat                                   : AVI\nFormat/Info                              : Audio Video Interleave\nFile size                                : 501 MiB\nDuration                                 : 2h 2mn\nOverall bit rate                         : 573 Kbps\n\nVideo\nID                                       : 0\nFormat                                   : MPEG-4 Visual\nFormat profile                           : Advanced Simple@L5\nFormat settings, BVOP                    : 2\nFormat settings, QPel                    : No\nFormat settings, GMC                     : No warppoints\nFormat settings, Matrix                  : Default (H.263)\nCodec ID                                 : XVID\nCodec ID/Hint                            : XviD\nDuration                                 : 2h 2mn\nBit rate                                 : 373 Kbps\nWidth                                    : 352 pixels\nHeight                                   : 144 pixels\nDisplay aspect ratio                     : 2.40:1\nFrame rate                               : 25.000 fps\nColor space                              : YUV\nChroma subsampling                       : 4:2:0\nBit depth                                : 8 bits\nScan type                                : Progressive\nCompression mode                         : Lossy\nBits/(Pixel*Frame)                       : 0.295\nStream size                              : 326 MiB (65%)\nWriting library                          : XviD 1.2.1 (UTC 2008-12-04)\n\nAudio\nID                                       : 1\nFormat                                   : AC-3\nFormat/Info                              : Audio Coding 3\nMode extension                           : CM (complete main)\nFormat settings, Endianness              : Big\nCodec ID                                 : 2000\nDuration                                 : 2h 2mn\nBit rate mode                            : Constant\nBit rate                                 : 192 Kbps\nChannel(s)                               : 2 channels\nChannel positions                        : Front: L R\nSampling rate                            : 48.0 KHz\nBit depth                                : 16 bits\nCompression mode                         : Lossy\nStream size                              : 168 MiB (33%)\nAlignment                                : Aligned on interleaves\nInterleave, duration                     : 64 ms (1.60 video frames)\nInterleave, preload duration             : 192 ms\n\n[/CODE]\n\n\n\n[B][SIZE=&quot;4&quot;][COLOR=&quot;Blue&quot;]Hit Thanks if you like my post &amp; Rip [/COLOR][/SIZE][/B]\n[/CENTER]","torrent":{"xt":"urn:btih:7b4432679b2dde41f7723742376147517c032478","amp;dn":"Zanjeer+%282013%29+501MB+Scam+Rip+Xvid+%5D%5BVAMPIRE+ROCK%27S%5D%5B","amp;tr":["udp%3A%2F%2Ftracker.openbittorrent.com%3A80","udp%3A%2F%2Fopen.demonii.com%3A1337","udp%3A%2F%2Ftracker.coppersurfer.tk%3A6969","udp%3A%2F%2Fexodus.desync.com%3A6969"],"infoHash":"7b4432679b2dde41f7723742376147517c032478","infoHashBuffer":{"type":"Buffer","data":[123,68,50,103,155,45,222,65,247,114,55,66,55,97,71,81,124,3,36,120]},"announce":[],"urlList":[]}}